<?xml version="1.0" standalone="no"?>
<!DOCTYPE svg PUBLIC "-//W3C//DTD SVG 20010904//EN"
 "http://www.w3.org/TR/2001/REC-SVG-20010904/DTD/svg10.dtd">
<svg version="1.0" xmlns="http://www.w3.org/2000/svg"
 width="500.000000pt" height="500.000000pt" viewBox="0 0 500.000000 500.000000"
 preserveAspectRatio="xMidYMid meet">

<g transform="translate(0.000000,500.000000) scale(0.100000,-0.100000)"
fill="#000000" stroke="none">
<path d="M0 2500 l0 -2500 2500 0 2500 0 0 2500 0 2500 -2500 0 -2500 0 0
-2500z m2512 1121 l-33 -28 33 -22 33 -21 -28 0 c-15 0 -36 6 -48 13 -17 10
-22 9 -33 -5 -23 -31 -46 -22 -46 16 0 19 -3 41 -6 50 -5 12 0 16 20 16 20 0
26 -5 26 -21 0 -20 0 -20 28 -1 58 41 101 43 54 3z m181 2 c19 -11 -8 -23 -41
-18 -28 5 -33 4 -22 -4 8 -6 23 -11 33 -11 9 0 17 -5 17 -11 0 -7 -12 -10 -30
-7 -16 3 -30 1 -30 -3 0 -4 14 -9 32 -11 17 -2 34 -9 36 -17 4 -11 -6 -12 -54
-6 -33 4 -60 8 -61 8 0 1 1 24 4 50 l6 48 51 -6 c28 -4 54 -9 59 -12z m-362
-8 c0 -5 -11 -12 -23 -13 -13 -2 -27 -8 -33 -14 -7 -7 0 -8 23 -3 39 8 42 -7
5 -23 -27 -11 -27 -11 10 -6 27 4 37 1 37 -9 0 -9 -20 -17 -55 -24 l-54 -9
-10 45 c-5 25 -8 48 -5 50 5 6 76 19 92 17 7 0 13 -5 13 -11z m476 -41 c17
-35 33 -36 33 -3 0 20 5 22 31 11 13 -6 13 -13 2 -54 -13 -42 -16 -46 -36 -39
-12 4 -28 22 -36 39 -17 38 -27 40 -35 8 -4 -18 -11 -23 -26 -19 -20 5 -20 22
1 80 11 31 47 19 66 -23z m-633 10 c9 -3 16 -17 16 -29 0 -13 5 -27 10 -30 26
-16 8 -27 -35 -21 -41 7 -45 5 -45 -13 0 -14 -6 -21 -19 -21 -14 0 -23 12 -34
43 l-14 42 46 17 c55 20 55 20 75 12z m776 -87 c-18 -38 -34 -47 -51 -29 -4 4
2 26 13 50 16 37 21 41 38 32 19 -10 19 -11 0 -53z m90 13 c11 -6 21 -26 25
-51 l7 -41 17 25 c13 20 20 23 34 16 16 -10 16 -13 -5 -50 -12 -21 -25 -39
-29 -39 -25 0 -40 17 -46 53 -6 40 -6 40 -24 19 -10 -14 -23 -20 -33 -16 -20
8 -20 9 6 55 24 44 23 43 48 29z m-1068 -27 c32 -29 23 -60 -29 -93 -26 -17
-49 -30 -52 -30 -7 0 -54 81 -49 85 6 6 101 55 106 55 3 0 14 -7 24 -17z m784
-17 c103 -28 221 -83 312 -144 115 -79 235 -203 215 -223 -7 -7 -18 -1 -32 20
-19 27 -51 42 -51 25 0 -4 52 -86 67 -103 5 -7 13 5 18 25 3 11 11 44 19 74
l14 55 1 -48 c1 -57 22 -107 53 -126 13 -8 61 -17 108 -20 l85 -6 -71 -8 c-88
-9 -137 -25 -130 -43 3 -8 0 -11 -8 -8 -17 7 -28 -21 -20 -52 4 -17 13 -24 31
-24 18 0 24 4 19 15 -17 42 -15 46 4 11 15 -27 24 -35 30 -26 5 8 12 0 20 -24
7 -21 10 -39 7 -42 -2 -3 -8 7 -11 21 -5 18 -12 25 -21 21 -8 -3 -15 -1 -15 4
0 6 -12 10 -26 10 -19 0 -25 -4 -21 -14 7 -18 19 -95 13 -81 -3 6 -10 29 -16
53 -11 41 -30 58 -30 25 0 -15 -1 -15 -14 2 -8 12 -20 16 -34 13 -12 -4 -23 0
-26 8 -4 10 2 12 24 7 24 -4 30 -2 30 11 0 27 -28 74 -51 87 -29 15 -32 8 -14
-36 9 -20 14 -39 12 -42 -3 -2 -13 19 -23 47 -10 27 -23 50 -28 50 -6 0 -28 3
-50 7 l-38 6 6 -34 5 -34 -11 33 c-7 22 -18 32 -32 33 -17 1 -18 2 -3 6 9 2
17 9 17 14 0 5 -8 9 -17 10 -10 0 -13 3 -6 5 7 3 10 13 7 22 -5 15 -4 15 6 0
8 -13 24 -18 55 -18 25 0 45 2 45 4 0 13 -72 126 -80 126 -6 0 -10 6 -10 13 0
6 -19 36 -43 64 -35 45 -47 53 -75 53 l-33 0 38 -55 c31 -44 44 -55 68 -56 24
-1 25 -3 8 -6 -13 -2 -23 -9 -23 -16 0 -8 -3 -8 -12 1 -7 7 -33 12 -59 12
l-48 0 15 -35 c21 -51 16 -57 -6 -7 -14 31 -25 42 -42 43 -17 1 -18 3 -5 6 22
6 22 9 -11 68 -26 48 -29 50 -75 53 -47 3 -48 2 -43 -20 l6 -23 -11 23 c-12
22 -14 22 -241 22 -125 0 -228 -2 -228 -5 0 -2 -9 -27 -20 -55 l-20 -50 270 0
270 0 -11 26 c-5 15 -8 29 -5 31 2 2 8 -10 14 -26 9 -24 17 -31 39 -32 24 -2
24 -2 6 -6 -15 -3 -23 -12 -24 -26 -2 -22 -2 -22 -6 1 -4 20 -10 22 -69 22
-63 0 -64 -1 -65 -27 l-2 -28 -4 28 -4 27 -140 0 -139 0 -1 -27 -2 -28 -4 28
c-4 26 -7 27 -64 27 -53 0 -61 -3 -69 -22 l-9 -23 0 22 c-1 14 -9 23 -23 26
-20 4 -19 4 4 6 21 1 31 9 42 34 32 77 32 77 -16 77 -24 0 -49 -5 -56 -12 -30
-30 -7 12 28 52 l40 45 -26 3 c-20 3 -37 -7 -71 -40 -42 -41 -43 -43 -21 -50
20 -5 19 -6 -9 -7 -25 -1 -38 -10 -67 -51 -20 -28 -36 -52 -36 -55 0 -3 22 -5
48 -5 47 0 50 1 67 40 10 23 23 43 27 47 5 3 0 -13 -11 -36 -25 -49 -25 -48
-3 -54 13 -4 12 -5 -5 -6 -12 0 -27 -9 -33 -18 -11 -17 -11 -17 -6 0 5 15 -2
17 -44 17 l-50 0 -35 -70 -35 -70 37 0 c55 0 79 9 92 33 l11 22 -6 -22 c-5
-22 -3 -23 59 -23 62 0 66 1 76 28 l11 27 -5 -27 -5 -28 75 0 75 0 2 38 1 37
4 -37 4 -37 230 0 c212 0 230 1 225 17 -13 45 -14 71 0 30 l15 -48 65 0 c63 0
65 1 60 23 l-6 22 11 -22 c8 -14 22 -24 38 -24 24 -2 24 -2 4 -6 -13 -2 -24
-12 -24 -21 -1 -15 -2 -15 -6 1 -4 15 -20 17 -149 17 l-144 0 -2 -37 -1 -38
-4 38 -4 37 -160 0 c-149 0 -159 -1 -159 -19 0 -14 11 -21 48 -29 l47 -11 -47
5 c-41 4 -48 3 -49 -13 -1 -17 -2 -17 -6 0 -2 9 -14 17 -26 17 -12 0 -46 3
-74 6 -47 6 -53 5 -54 -12 -1 -17 -2 -17 -6 -1 -4 14 -16 17 -74 17 -59 0 -69
-3 -70 -17 -1 -15 -2 -15 -6 -2 -3 13 -15 15 -61 11 -31 -3 -59 -7 -62 -11 -3
-3 -27 -6 -54 -7 -36 0 -53 -6 -64 -20 -14 -18 -14 -18 -8 0 5 15 3 17 -16 12
-13 -3 -30 -6 -39 -6 -9 0 -22 -14 -29 -30 -7 -17 -15 -29 -17 -26 -3 2 1 14
7 26 10 20 9 21 -12 18 -16 -2 -30 -18 -48 -54 -14 -28 -30 -49 -37 -47 -7 2
-18 -16 -27 -44 -12 -37 -14 -40 -10 -13 4 19 15 53 25 75 10 22 16 30 13 18
-8 -35 3 -27 26 17 11 22 18 40 16 40 -15 0 -195 -64 -239 -85 -131 -61 -239
-151 -276 -229 -39 -79 -20 -206 38 -271 10 -11 24 -37 31 -58 11 -36 29 -47
70 -45 8 1 33 -10 55 -24 77 -48 275 -124 275 -105 0 2 -7 21 -15 40 -8 20
-15 42 -14 49 0 7 5 0 11 -15 6 -18 15 -26 24 -23 8 3 14 1 14 -4 0 -15 50
-12 51 3 0 9 2 9 6 0 10 -27 23 -11 25 30 l1 42 4 -43 c4 -40 6 -43 31 -42 45
3 47 1 48 -38 l1 -37 -14 33 c-9 22 -20 32 -34 32 -19 0 -21 -4 -15 -32 6 -32
46 -78 67 -78 6 0 8 10 5 23 -4 16 -2 15 6 -4 12 -28 40 -37 123 -40 22 -1 32
-3 23 -6 -28 -7 -21 -23 10 -24 23 -2 24 -2 5 -6 -22 -4 -22 -5 12 -74 l35
-69 50 0 c42 0 49 2 44 18 -5 16 -5 16 6 -1 6 -9 23 -18 38 -18 24 -2 24 -2 5
-6 -13 -2 -23 -7 -23 -9 0 -14 44 -87 85 -142 41 -55 51 -62 81 -62 19 0 34 2
34 4 0 3 -9 21 -21 40 -18 30 -27 36 -57 38 l-37 1 33 4 c21 3 32 9 29 16 -13
36 -14 56 -1 25 l16 -37 228 -1 c226 0 227 0 238 22 12 23 12 23 7 1 -5 -18
-1 -22 27 -26 l33 -4 -37 -1 c-33 -2 -40 -7 -58 -42 l-20 -40 34 0 c31 0 40 7
79 58 38 49 87 131 87 146 0 2 -8 7 -17 9 -10 3 19 5 64 6 55 1 83 5 86 14 4
7 6 6 6 -5 1 -9 -3 -18 -7 -20 -5 -1 -26 -27 -46 -55 l-38 -53 34 0 c28 0 39
8 76 54 23 30 42 57 42 60 0 3 12 18 26 33 22 23 25 24 15 6 -11 -21 -10 -23
17 -23 25 0 36 9 71 63 22 35 41 66 41 70 0 4 -11 7 -24 7 -28 0 -50 -19 -71
-61 -9 -16 -18 -29 -21 -29 -3 0 3 16 15 36 12 19 21 37 21 40 0 2 -20 4 -45
4 -41 0 -46 -3 -64 -37 -11 -21 -20 -34 -21 -30 0 4 7 21 15 37 l16 30 -38 0
c-69 0 -80 -8 -103 -71 -13 -33 -24 -58 -27 -56 -2 3 5 28 17 56 11 28 20 54
20 56 0 3 -29 5 -65 5 -45 0 -65 -4 -65 -12 0 -10 -2 -10 -9 0 -5 9 -30 13
-83 11 l-75 -2 -69 -68 -68 -69 62 0 c61 0 62 1 63 28 l2 27 4 -27 c4 -27 7
-28 64 -28 52 0 61 3 68 22 8 21 8 21 13 -5 3 -16 1 -27 -6 -27 -6 -1 -102 -1
-213 -1 -203 0 -203 0 -204 -22 l-2 -22 -4 23 c-4 20 -10 22 -68 22 -57 0 -64
-2 -59 -18 5 -16 5 -16 -6 1 -6 9 -23 18 -38 18 -24 2 -24 2 -4 6 14 3 22 12
23 26 l0 22 9 -22 c8 -20 16 -23 70 -23 l60 0 2 33 1 32 4 -32 c4 -33 5 -33
59 -33 l56 0 -59 64 -58 64 -6 -31 -6 -32 -2 37 -1 37 -145 0 c-80 0 -145 -1
-145 -3 0 -2 7 -20 16 -41 8 -20 13 -39 11 -41 -2 -3 -12 16 -21 41 -11 28
-24 45 -34 45 -13 0 -14 2 -3 9 9 6 11 19 7 42 l-6 34 13 -35 14 -35 141 -2
c78 -2 142 -1 142 1 0 2 -11 24 -25 47 -14 24 -25 59 -25 77 l0 32 -60 0 c-41
0 -60 -4 -61 -12 0 -10 -2 -10 -6 0 -3 8 -28 12 -74 12 -64 0 -69 -1 -70 -22
l-2 -23 -4 23 c-4 20 -10 22 -69 22 -44 0 -64 -4 -65 -12 0 -10 -2 -10 -6 0
-2 6 -14 13 -26 13 -17 1 -18 2 -4 6 10 3 18 15 18 31 l2 27 4 -27 c4 -27 6
-28 69 -28 59 0 64 2 65 23 l2 22 4 -22 c4 -21 10 -23 79 -23 63 0 74 3 75 18
1 16 2 16 6 0 4 -15 16 -18 63 -18 50 0 60 3 65 20 11 35 54 60 103 60 38 0
52 -6 78 -31 l33 -32 32 33 c31 30 36 32 91 28 l58 -4 0 47 0 48 -180 0 -180
0 -2 -37 -1 -37 -4 38 -4 37 -85 0 c-60 0 -84 -4 -85 -12 0 -10 -2 -10 -6 0
-3 8 -29 12 -79 12 -74 0 -74 0 -75 -27 l-2 -28 -4 28 -4 27 -152 1 c-84 1
-144 3 -134 6 9 2 18 12 18 21 1 15 2 15 6 0 4 -14 15 -18 59 -18 49 0 54 2
55 23 l2 22 4 -22 c4 -22 7 -22 154 -22 l149 0 2 42 1 42 4 -42 4 -43 85 0 84
0 2 48 2 47 3 -47 4 -48 180 0 179 0 2 48 2 47 3 -47 4 -48 85 0 84 0 2 43 1
42 4 -42 4 -43 150 0 149 0 1 28 2 27 4 -27 c4 -27 7 -28 59 -28 36 0 54 4 55
13 0 10 2 10 6 0 2 -7 12 -13 21 -13 8 0 13 -3 9 -6 -3 -4 -71 -6 -152 -5
l-145 1 -1 -27 -2 -28 -4 28 c-4 27 -5 27 -79 27 -63 0 -74 -3 -75 -17 -1 -17
-2 -17 -6 0 -4 14 -17 17 -88 17 l-84 0 -3 -52 c-2 -40 2 -61 17 -85 19 -30
24 -32 78 -33 39 0 57 4 58 13 0 10 2 10 6 0 3 -9 29 -13 79 -13 70 0 74 1 75
23 l2 22 4 -22 c4 -21 10 -23 69 -23 59 0 64 2 65 23 l2 22 4 -22 c2 -13 13
-24 26 -26 18 -4 17 -5 -5 -6 -16 0 -28 -7 -29 -13 0 -10 -2 -10 -6 0 -3 9
-42 12 -144 12 -125 0 -139 -2 -140 -17 -1 -17 -2 -17 -6 0 -4 14 -16 17 -63
17 l-58 0 -4 -37 c-3 -21 -8 -45 -12 -54 -6 -14 2 -17 51 -21 37 -3 61 -1 65
6 6 8 8 7 8 -1 0 -9 21 -13 70 -13 60 0 70 3 71 18 1 13 2 13 5 2 4 -12 18
-14 64 -12 53 3 60 6 70 30 8 21 9 22 6 5 -4 -20 0 -23 25 -23 36 0 175 27
205 40 13 5 29 28 39 54 11 29 22 43 31 39 8 -3 16 5 20 22 3 14 9 24 11 21 3
-3 0 -21 -7 -42 -8 -24 -15 -32 -20 -24 -6 9 -13 3 -25 -19 -16 -33 -12 -58 5
-31 6 10 10 11 10 3 0 -8 28 -2 88 18 257 90 413 232 411 373 -1 111 -8 126
-90 202 -51 47 -107 86 -165 116 -98 50 -210 92 -229 84 -11 -4 -51 62 -42 71
2 2 10 -10 17 -27 8 -20 19 -30 34 -30 11 0 71 -13 131 -30 132 -36 131 -36
138 -8 8 29 6 30 -31 16 -41 -16 -51 -4 -22 27 l23 25 -24 0 c-13 0 -31 4 -38
9 -12 8 -8 13 17 28 18 10 32 20 32 23 0 3 -13 11 -30 17 -38 14 -38 32 0 40
28 5 29 7 15 23 -33 37 -10 49 48 25 16 -7 16 -5 6 19 -20 44 -94 32 -108 -18
-5 -17 -10 -23 -10 -13 -2 28 -38 57 -73 57 -38 0 -31 10 14 19 24 5 38 16 50
41 17 34 18 34 18 9 0 -15 6 -31 13 -36 18 -15 77 -24 77 -13 0 17 25 11 48
-10 l22 -21 0 36 c0 45 18 43 40 -4 l16 -32 13 36 c17 47 41 46 41 -2 l0 -37
29 28 c35 34 47 21 27 -29 l-15 -35 29 15 c31 16 60 20 60 8 0 -4 -12 -20 -27
-36 l-28 -30 29 6 c63 11 75 -16 19 -40 l-38 -15 38 -15 c45 -18 43 -36 -4
-43 -33 -5 -33 -6 -11 -18 12 -7 22 -20 22 -29 0 -15 -23 -15 -62 2 -17 7 -17
5 -2 -30 21 -50 5 -67 -30 -32 l-26 26 0 -34 c0 -47 -24 -46 -42 2 l-15 36
-12 -33 c-6 -18 -10 -34 -9 -35 171 -99 237 -155 276 -236 28 -58 29 -147 3
-206 -42 -92 -165 -188 -321 -253 -79 -33 -264 -85 -340 -95 -42 -6 -48 -11
-90 -73 -132 -195 -344 -342 -585 -404 -75 -19 -115 -23 -240 -22 -129 0 -163
4 -246 26 -178 49 -363 159 -478 285 -45 49 -60 72 -56 87 3 12 -2 8 -10 -9
-8 -16 -15 -52 -16 -80 -2 -42 -3 -37 -9 27 -10 123 -47 155 -180 159 l-65 2
65 8 c108 14 113 16 106 47 -5 26 -5 26 6 5 10 -21 28 -32 28 -18 0 9 -50 105
-54 105 -2 0 -3 -11 -2 -25 0 -14 5 -25 10 -25 5 0 7 -2 4 -5 -2 -3 -59 9
-126 25 -277 67 -472 182 -541 319 -29 56 -29 161 0 216 78 149 341 288 629
335 l75 12 54 78 c147 214 391 365 666 411 93 15 301 2 401 -25z m478 -87 c16
-13 26 -30 26 -47 l0 -26 -30 33 c-25 26 -33 31 -45 21 -18 -15 -8 -43 13 -35
8 3 23 -2 34 -11 17 -16 17 -19 2 -35 -15 -16 -17 -16 -36 -1 -46 37 -58 53
-58 75 0 49 48 62 94 26z m-1392 -14 c13 -29 -8 -69 -48 -87 -35 -16 -74 3
-74 37 0 63 98 103 122 50z m535 -107 c-3 -7 -5 -2 -5 12 0 14 2 19 5 13 2 -7
2 -19 0 -25z m250 0 c-3 -7 -5 -2 -5 12 0 14 2 19 5 13 2 -7 2 -19 0 -25z
m-923 6 c36 -35 -3 -114 -57 -114 -53 0 -63 55 -18 101 33 33 52 36 75 13z
m663 -56 c-3 -7 -5 -2 -5 12 0 14 2 19 5 13 2 -7 2 -19 0 -25z m270 0 c-3 -7
-5 -2 -5 12 0 14 2 19 5 13 2 -7 2 -19 0 -25z m-1067 -88 c-6 -11 -15 -20 -20
-20 -14 0 -13 -37 1 -46 6 -3 18 1 27 10 11 10 12 16 4 16 -16 0 -15 12 1 34
11 15 17 17 35 7 21 -11 21 -13 5 -39 -27 -43 -55 -72 -71 -72 -21 0 -52 30
-52 49 0 29 39 81 60 81 18 0 19 -3 10 -20z m501 -17 c-12 -20 -14 -14 -5 12
4 9 9 14 11 11 3 -2 0 -13 -6 -23z m136 5 c-3 -8 -6 -5 -6 6 -1 11 2 17 5 13
3 -3 4 -12 1 -19z m450 -35 c-3 -10 -5 -2 -5 17 0 19 2 27 5 18 2 -10 2 -26 0
-35z m170 -95 c-3 -7 -5 -2 -5 12 0 14 2 19 5 13 2 -7 2 -19 0 -25z m150 -10
c-3 -8 -6 -5 -6 6 -1 11 2 17 5 13 3 -3 4 -12 1 -19z m-140 -45 c-3 -10 -5 -4
-5 12 0 17 2 24 5 18 2 -7 2 -21 0 -30z m-820 5 c-3 -8 -6 -5 -6 6 -1 11 2 17
5 13 3 -3 4 -12 1 -19z m150 -10 c-3 -7 -5 -2 -5 12 0 14 2 19 5 13 2 -7 2
-19 0 -25z m820 10 c-3 -8 -6 -5 -6 6 -1 11 2 17 5 13 3 -3 4 -12 1 -19z
m-660 -80 c-2 -18 -4 -6 -4 27 0 33 2 48 4 33 2 -15 2 -42 0 -60z m350 5 c-2
-16 -4 -3 -4 27 0 30 2 43 4 28 2 -16 2 -40 0 -55z m-911 32 c-1 -38 -1 -38
-63 -35 -30 1 -43 -3 -43 -12 0 -9 -3 -9 -8 -2 -4 6 -14 14 -22 17 -10 4 -8 6
8 6 12 1 22 7 23 14 0 10 2 10 6 0 2 -7 20 -13 39 -13 30 0 37 4 45 30 6 17
12 30 13 30 1 0 2 -16 2 -35z m315 -15 c59 0 69 3 70 18 1 16 2 16 6 0 3 -12
15 -19 36 -20 l32 -1 -32 -4 c-22 -3 -33 -10 -34 -21 -1 -15 -2 -15 -6 1 -4
14 -16 17 -79 17 -70 0 -74 -1 -75 -22 l-2 -23 -4 23 c-4 20 -10 22 -69 22
-63 0 -64 -1 -65 -27 l-2 -28 -4 27 c-2 15 -12 29 -21 31 -12 3 -10 5 6 6 12
0 22 7 23 14 0 10 2 10 6 0 3 -9 26 -13 65 -13 54 0 61 2 66 23 l7 22 3 -22
c3 -21 8 -23 73 -23z m989 0 c41 0 60 4 61 13 0 10 2 10 6 0 2 -7 14 -14 26
-14 17 -1 18 -2 5 -6 -10 -2 -19 -14 -19 -26 -2 -22 -2 -22 -6 1 -4 20 -10 22
-69 22 -59 0 -64 -2 -65 -22 l-2 -23 -4 23 c-4 20 -10 22 -79 22 -52 0 -74 -4
-74 -12 0 -10 -2 -10 -8 -1 -4 6 -21 13 -37 16 l-30 4 33 2 c23 1 32 6 33 19
1 16 2 16 6 0 4 -15 16 -18 78 -18 70 0 73 1 69 23 l-5 22 10 -22 c9 -20 18
-23 71 -23z m-560 0 c0 -5 -4 -10 -10 -10 -5 0 -10 5 -10 10 0 6 5 10 10 10 6
0 10 -4 10 -10z m-775 -80 c-9 -41 -17 -33 -9 9 4 17 9 30 11 27 3 -2 2 -19
-2 -36z m1532 18 c-3 -8 -6 -5 -6 6 -1 11 2 17 5 13 3 -3 4 -12 1 -19z m-1680
-10 c-3 -8 -6 -5 -6 6 -1 11 2 17 5 13 3 -3 4 -12 1 -19z m60 0 c-3 -8 -6 -5
-6 6 -1 11 2 17 5 13 3 -3 4 -12 1 -19z m1770 0 c-3 -8 -6 -5 -6 6 -1 11 2 17
5 13 3 -3 4 -12 1 -19z m-1430 -10 c-3 -8 -6 -5 -6 6 -1 11 2 17 5 13 3 -3 4
-12 1 -19z m457 -115 c4 -65 8 -140 9 -168 l2 -50 -61 -3 -62 -3 -7 101 c-10
134 -29 133 -24 -2 l4 -103 -61 -3 -61 -3 -7 100 c-10 141 -31 147 -24 8 6
-120 8 -117 -72 -117 l-48 0 -6 128 c-4 70 -8 145 -9 167 l-2 40 87 9 c48 4
94 6 103 2 9 -3 15 -18 15 -41 0 -19 5 -35 10 -35 6 0 10 18 10 39 0 46 3 47
127 50 l71 1 6 -117z m283 82 c24 -27 24 -33 21 -146 -3 -108 -5 -121 -26
-141 -20 -21 -31 -23 -107 -21 -133 3 -145 17 -145 164 0 101 16 154 52 169
13 6 59 8 102 7 72 -4 81 -6 103 -32z m-1150 3 c-3 -8 -6 -5 -6 6 -1 11 2 17
5 13 3 -3 4 -12 1 -19z m60 0 c-3 -8 -6 -5 -6 6 -1 11 2 17 5 13 3 -3 4 -12 1
-19z m1367 5 l38 -6 -7 -86 c-3 -47 -9 -94 -11 -103 -3 -12 0 -18 9 -18 12 0
17 20 22 88 9 125 6 120 68 114 28 -2 56 -8 61 -12 7 -8 -4 -163 -21 -289 l-6
-44 -86 7 c-47 4 -103 10 -124 13 l-38 6 7 103 c4 70 3 104 -4 104 -6 0 -13
-37 -17 -87 -10 -126 -6 -120 -73 -115 -31 2 -59 6 -61 8 -4 4 15 229 25 298
l6 39 87 -7 c47 -4 103 -10 125 -13z m423 -5 c-3 -8 -6 -5 -6 6 -1 11 2 17 5
13 3 -3 4 -12 1 -19z m30 0 c-3 -8 -6 -5 -6 6 -1 11 2 17 5 13 3 -3 4 -12 1
-19z m-1576 -109 c9 -52 15 -96 13 -98 -2 -2 -18 -7 -36 -11 -18 -3 -32 -11
-31 -16 0 -5 4 -34 8 -65 l7 -57 -58 -10 c-66 -11 -73 -7 -75 43 0 17 -4 41
-8 55 -6 21 -12 24 -42 22 l-36 -3 -15 93 c-9 51 -13 97 -8 101 4 5 32 11 62
14 l55 6 7 -47 c11 -69 30 -72 23 -3 l-5 56 36 6 c20 4 44 8 52 9 30 7 35 -2
51 -95z m99 58 c0 -32 -1 -33 -37 -28 l-38 6 33 3 c26 3 32 7 32 28 0 13 2 24
5 24 3 0 5 -15 5 -33z m1420 3 c172 -29 170 -29 159 -82 -6 -23 -11 -44 -13
-45 -1 -2 -37 4 -80 12 -43 8 -89 15 -102 15 -42 0 -26 -17 24 -25 26 -4 68
-11 94 -16 l47 -10 -6 -37 c-3 -20 -9 -40 -12 -45 -4 -4 -46 0 -95 9 -78 15
-110 14 -94 -2 3 -3 47 -13 98 -22 54 -9 94 -21 97 -29 3 -7 2 -29 -1 -48 -5
-27 -12 -35 -28 -35 -23 0 -300 50 -309 56 -4 2 -1 34 6 71 7 38 20 112 30
166 16 92 19 98 39 93 11 -2 77 -14 146 -26z m-1846 -18 c8 -14 77 -315 72
-319 -2 -2 -29 -10 -60 -17 l-56 -13 -10 35 c-5 19 -15 61 -21 91 -12 56 -24
80 -34 69 -3 -3 4 -44 15 -92 11 -48 20 -93 20 -100 0 -8 -16 -17 -37 -21 -21
-3 -48 -9 -59 -12 -20 -4 -24 3 -44 88 -24 102 -27 112 -39 104 -7 -4 2 -50
34 -181 4 -19 -2 -23 -40 -33 -83 -21 -77 -28 -118 150 -21 89 -37 163 -35
164 8 7 182 43 189 39 4 -2 10 -18 14 -34 10 -45 28 -37 20 9 l-6 39 83 20
c98 23 105 24 112 14z m2163 -56 c3 -3 1 -24 -5 -48 -6 -23 -9 -46 -6 -50 10
-16 22 2 29 42 4 22 11 42 15 45 10 6 100 -14 112 -24 4 -3 -3 -46 -16 -96
l-22 -90 -39 0 c-38 0 -39 0 -53 -55 -7 -30 -17 -58 -20 -62 -4 -4 -30 -1 -57
6 -46 11 -50 15 -49 42 0 16 4 46 8 67 8 35 7 38 -23 48 -18 6 -31 18 -31 27
0 21 35 156 44 170 6 10 100 -9 113 -22z m-1750 -203 c-2 -38 -3 -7 -3 67 0
74 1 105 3 68 2 -38 2 -98 0 -135z m1070 -75 c-3 -8 -6 -5 -6 6 -1 11 2 17 5
13 3 -3 4 -12 1 -19z m-1409 -83 c0 -16 -2 -15 -8 5 -11 34 -11 60 0 35 5 -11
8 -29 8 -40z m1759 33 c-3 -8 -6 -5 -6 6 -1 11 2 17 5 13 3 -3 4 -12 1 -19z
m57 -22 c-3 -15 -8 -25 -11 -23 -2 3 -1 17 3 31 3 15 8 25 11 23 2 -3 1 -17
-3 -31z m-1727 -18 c-3 -7 -5 -2 -5 12 0 14 2 19 5 13 2 -7 2 -19 0 -25z m120
-5 c-3 -10 -5 -4 -5 12 0 17 2 24 5 18 2 -7 2 -21 0 -30z m-300 5 c-3 -8 -6
-5 -6 6 -1 11 2 17 5 13 3 -3 4 -12 1 -19z m30 0 c-3 -8 -6 -5 -6 6 -1 11 2
17 5 13 3 -3 4 -12 1 -19z m1600 -15 c-3 -10 -5 -4 -5 12 0 17 2 24 5 18 2 -7
2 -21 0 -30z m120 15 c-3 -8 -6 -5 -6 6 -1 11 2 17 5 13 3 -3 4 -12 1 -19z
m90 0 c-3 -8 -6 -5 -6 6 -1 11 2 17 5 13 3 -3 4 -12 1 -19z m90 0 c-3 -8 -6
-5 -6 6 -1 11 2 17 5 13 3 -3 4 -12 1 -19z m-1320 -60 c-2 -13 -4 -3 -4 22 0
25 2 35 4 23 2 -13 2 -33 0 -45z m710 -10 c-2 -13 -4 -3 -4 22 0 25 2 35 4 23
2 -13 2 -33 0 -45z m-1310 30 c-3 -8 -6 -5 -6 6 -1 11 2 17 5 13 3 -3 4 -12 1
-19z m30 0 c-3 -8 -6 -5 -6 6 -1 11 2 17 5 13 3 -3 4 -12 1 -19z m60 0 c-3 -8
-6 -5 -6 6 -1 11 2 17 5 13 3 -3 4 -12 1 -19z m90 0 c-3 -8 -6 -5 -6 6 -1 11
2 17 5 13 3 -3 4 -12 1 -19z m260 -15 c-3 -10 -5 -4 -5 12 0 17 2 24 5 18 2
-7 2 -21 0 -30z m1290 5 c-3 -7 -5 -2 -5 12 0 14 2 19 5 13 2 -7 2 -19 0 -25z
m90 10 c-3 -8 -6 -5 -6 6 -1 11 2 17 5 13 3 -3 4 -12 1 -19z m60 0 c-3 -8 -6
-5 -6 6 -1 11 2 17 5 13 3 -3 4 -12 1 -19z m30 0 c-3 -8 -6 -5 -6 6 -1 11 2
17 5 13 3 -3 4 -12 1 -19z m-1610 -20 c-3 -7 -5 -2 -5 12 0 14 2 19 5 13 2 -7
2 -19 0 -25z m1170 -5 c-3 -10 -5 -4 -5 12 0 17 2 24 5 18 2 -7 2 -21 0 -30z
m140 -5 c-3 -7 -5 -2 -5 12 0 14 2 19 5 13 2 -7 2 -19 0 -25z m-1570 -10 c-3
-8 -6 -5 -6 6 -1 11 2 17 5 13 3 -3 4 -12 1 -19z m60 0 c-3 -8 -6 -5 -6 6 -1
11 2 17 5 13 3 -3 4 -12 1 -19z m90 -10 c-3 -7 -5 -2 -5 12 0 14 2 19 5 13 2
-7 2 -19 0 -25z m1620 2 c-5 -24 -3 -30 11 -32 9 0 -14 -4 -53 -8 -38 -3 -74
-3 -79 2 -11 9 0 11 62 8 40 -1 43 0 48 29 4 17 9 31 12 31 2 0 2 -13 -1 -30z
m60 8 c-3 -8 -6 -5 -6 6 -1 11 2 17 5 13 3 -3 4 -12 1 -19z m-150 -10 c-3 -8
-6 -5 -6 6 -1 11 2 17 5 13 3 -3 4 -12 1 -19z m59 -85 c-8 -15 -15 -25 -16
-21 0 12 23 58 27 54 3 -2 -2 -17 -11 -33z m-329 5 c-3 -8 -6 -5 -6 6 -1 11 2
17 5 13 3 -3 4 -12 1 -19z m244 -5 c-12 -20 -14 -14 -5 12 4 9 9 14 11 11 3
-2 0 -13 -6 -23z m-1074 -30 c-3 -10 -5 -4 -5 12 0 17 2 24 5 18 2 -7 2 -21 0
-30z m670 -10 c-3 -10 -5 -4 -5 12 0 17 2 24 5 18 2 -7 2 -21 0 -30z m-820 5
c-3 -8 -6 -5 -6 6 -1 11 2 17 5 13 3 -3 4 -12 1 -19z m970 0 c-3 -8 -6 -5 -6
6 -1 11 2 17 5 13 3 -3 4 -12 1 -19z m-810 -55 c-3 -10 -5 -4 -5 12 0 17 2 24
5 18 2 -7 2 -21 0 -30z m-742 -113 c7 -6 32 -14 56 -19 l44 -8 -40 -8 c-50 -9
-75 -31 -76 -64 -1 -24 -1 -24 -10 6 -11 37 -16 42 -78 58 -42 12 -43 13 -14
14 51 2 83 21 91 55 l7 31 3 -27 c2 -14 9 -32 17 -38z m762 28 c-3 -8 -6 -5
-6 6 -1 11 2 17 5 13 3 -3 4 -12 1 -19z m460 -25 c-3 -10 -5 -2 -5 17 0 19 2
27 5 18 2 -10 2 -26 0 -35z m147 3 c-3 -15 -8 -25 -11 -23 -2 3 -1 17 3 31 3
15 8 25 11 23 2 -3 1 -17 -3 -31z m-597 -18 c-3 -8 -6 -5 -6 6 -1 11 2 17 5
13 3 -3 4 -12 1 -19z m430 -110 c-3 -7 -5 -2 -5 12 0 14 2 19 5 13 2 -7 2 -19
0 -25z m124 -5 c-12 -20 -14 -14 -5 12 4 9 9 14 11 11 3 -2 0 -13 -6 -23z
m-384 -35 c-3 -7 -5 -2 -5 12 0 14 2 19 5 13 2 -7 2 -19 0 -25z m250 -10 c-3
-7 -5 -2 -5 12 0 14 2 19 5 13 2 -7 2 -19 0 -25z m657 11 c13 -19 13 -25 1
-50 -8 -15 -29 -38 -46 -50 l-32 -22 -28 31 c-16 18 -29 36 -29 40 0 13 83 72
101 72 10 0 25 -10 33 -21z m-142 -106 c10 -9 18 -24 18 -34 0 -20 -54 -69
-76 -69 -61 0 -75 68 -21 100 39 24 55 25 79 3z m-1076 -76 c37 -32 28 -56 -9
-27 -29 23 -57 21 -57 -4 0 -20 21 -31 30 -16 6 9 12 9 29 1 22 -12 25 -20 15
-45 -4 -10 -11 -12 -22 -7 -63 30 -76 38 -85 53 -8 12 -7 24 1 42 15 34 60 35
98 3z m932 1 c16 -16 15 -63 -2 -77 -47 -40 -116 -25 -116 25 0 43 88 82 118
52z m-765 -67 c24 -24 17 -67 -13 -76 -33 -10 -79 5 -96 31 -15 22 -15 26 1
50 15 23 22 25 53 20 20 -3 45 -14 55 -25z m622 -30 c5 -24 3 -36 -6 -42 -22
-14 -29 -11 -29 11 0 28 -17 25 -24 -5 -8 -30 -32 -32 -61 -5 l-22 20 5 -30
c3 -25 1 -30 -15 -30 -15 0 -22 11 -30 45 -6 24 -8 47 -5 50 13 13 48 3 73
-21 l27 -26 12 37 c7 21 21 40 34 44 24 10 30 2 41 -48z m-467 3 c29 -20 26
-64 -5 -80 -33 -16 -82 -5 -100 22 -35 54 46 99 105 58z m165 -3 c32 -13 41
-39 22 -67 -13 -21 -23 -24 -75 -24 l-60 0 0 43 c0 24 3 47 7 50 9 10 78 8
106 -2z"/>
<path d="M2118 3553 c-19 -5 -25 -23 -9 -23 17 0 41 12 41 21 0 9 -4 10 -32 2z"/>
<path d="M1901 3451 c-10 -7 -11 -13 -2 -30 10 -18 14 -19 32 -8 10 6 18 19
17 27 -4 18 -28 23 -47 11z"/>
<path d="M2420 3480 c-12 -8 -11 -10 8 -10 12 0 22 5 22 10 0 13 -11 13 -30 0z"/>
<path d="M2465 3480 c-4 -6 10 -10 35 -10 25 0 39 4 35 10 -3 6 -19 10 -35 10
-16 0 -32 -4 -35 -10z"/>
<path d="M2550 3480 c0 -5 10 -10 23 -10 18 0 19 2 7 10 -19 13 -30 13 -30 0z"/>
<path d="M2330 3450 c-8 -5 -23 -7 -32 -4 -10 3 -27 0 -39 -6 -15 -8 -19 -9
-15 -1 10 16 1 14 -43 -9 -21 -10 -41 -17 -44 -14 -3 3 -18 -2 -34 -11 -22
-12 -23 -14 -5 -10 13 4 22 2 22 -4 0 -6 -8 -11 -17 -11 -10 0 -38 -18 -63
-40 l-45 -39 31 -1 c24 0 41 11 78 50 49 51 52 53 98 50 14 -1 29 3 33 9 3 6
16 16 28 22 21 10 21 9 -2 -10 l-23 -21 29 0 c18 0 38 9 51 23 32 34 27 49 -8
27z m-105 -30 c-3 -5 -12 -10 -18 -10 -7 0 -6 4 3 10 19 12 23 12 15 0z"/>
<path d="M2360 3433 c-16 -20 -18 -28 -8 -35 9 -5 6 -8 -9 -8 -16 0 -28 -12
-43 -40 l-20 -40 49 0 c45 0 50 3 60 28 l11 27 -5 -27 -5 -27 107 0 c72 0 110
4 115 12 6 9 8 9 8 0 0 -9 17 -13 50 -13 l50 0 -20 40 c-15 28 -27 40 -43 40
-17 0 -19 2 -7 10 12 7 11 13 -10 34 -13 15 -34 26 -47 26 -27 0 -28 -2 -7
-41 8 -17 14 -35 12 -41 -2 -6 -12 9 -21 34 l-18 46 -59 0 -59 0 -18 -46 c-9
-25 -19 -40 -21 -34 -2 6 4 24 12 41 21 39 20 41 -8 41 -15 0 -33 -11 -46 -27z
m150 -33 c0 -5 -4 -10 -10 -10 -5 0 -10 5 -10 10 0 6 5 10 10 10 6 0 10 -4 10
-10z"/>
<path d="M2640 3452 c0 -19 48 -52 75 -52 l28 0 -38 30 c-37 29 -65 39 -65 22z"/>
<path d="M2725 3425 c19 -16 41 -24 60 -23 48 2 65 -1 65 -12 0 -5 19 -28 43
-50 34 -33 48 -40 72 -37 16 2 38 -1 49 -7 14 -8 20 -8 23 2 4 10 8 10 19 1 8
-7 17 -10 19 -7 8 8 -89 72 -107 70 -10 0 -20 3 -23 9 -4 5 -13 9 -22 9 -11 0
-3 -13 23 -36 l39 -36 -47 36 c-25 20 -53 36 -62 36 -9 0 -16 4 -16 10 0 16
-82 53 -125 56 l-40 4 30 -25z m59 0 c11 -8 16 -15 10 -15 -5 0 -18 7 -28 15
-11 8 -16 15 -10 15 5 0 18 -7 28 -15z m255 -112 c2 -2 0 -3 -5 -3 -5 0 -22
12 -39 26 l-30 26 35 -23 c19 -12 37 -24 39 -26z"/>
<path d="M2210 3350 l-32 -40 46 0 c43 0 47 2 66 40 l20 40 -34 0 c-28 0 -40
-7 -66 -40z"/>
<path d="M2710 3350 c19 -38 23 -40 66 -40 l46 0 -32 40 c-26 33 -38 40 -66
40 l-34 0 20 -40z"/>
<path d="M2807 3344 c21 -26 52 -72 68 -103 29 -55 31 -56 78 -59 26 -2 47 -1
47 2 0 3 -16 28 -36 56 -29 41 -42 50 -67 51 -26 1 -27 3 -8 6 23 5 22 6 -20
49 -31 32 -51 44 -72 44 l-28 0 38 -46z"/>
<path d="M2055 3369 c-4 -6 -12 -8 -19 -6 -6 3 -36 -13 -66 -34 -30 -22 -51
-39 -47 -39 4 0 31 16 59 36 l53 37 -40 -36 c-56 -51 -22 -47 40 4 28 23 52
43 54 45 2 2 -3 4 -12 4 -9 0 -19 -5 -22 -11z"/>
<path d="M1953 3236 c-24 -29 -43 -57 -43 -61 0 -4 -6 -13 -14 -19 -8 -6 -28
-37 -46 -68 l-32 -58 46 0 46 0 30 60 c36 71 37 77 8 83 -18 3 -17 5 7 6 24 1
37 12 68 56 l38 55 -33 0 c-28 -1 -40 -10 -75 -54z"/>
<path d="M1843 3227 c-32 -31 -54 -59 -50 -63 4 -5 33 17 64 49 74 73 61 86
-14 14z"/>
<path d="M1885 3228 c-45 -50 -47 -53 -24 -56 17 -3 33 8 66 45 48 54 51 63
24 63 -11 0 -40 -24 -66 -52z"/>
<path d="M3030 3273 c1 -5 20 -30 43 -56 33 -37 49 -48 66 -45 23 3 21 6 -24
56 -26 28 -55 52 -66 52 -10 0 -19 -3 -19 -7z"/>
<path d="M3090 3273 c0 -15 109 -117 117 -110 4 4 -13 28 -38 53 -45 47 -79
71 -79 57z"/>
<path d="M1781 3095 c-23 -35 -41 -67 -41 -70 0 -10 47 -5 62 8 8 6 30 38 47
70 l32 57 -29 0 c-26 0 -36 -9 -71 -65z"/>
<path d="M3149 3108 c17 -29 37 -60 45 -69 8 -10 12 -20 9 -23 -12 -12 23 -6
40 7 15 11 13 18 -24 75 -35 52 -46 62 -70 62 l-29 0 29 -52z"/>
<path d="M1765 3140 c-4 -6 -10 -8 -15 -5 -8 5 -79 -86 -84 -108 -2 -7 -1 -9
1 -6 2 3 14 4 27 2 20 -4 31 5 65 55 23 34 41 63 41 66 0 10 -29 6 -35 -4z
m-46 -64 c-29 -42 -52 -64 -32 -33 30 47 58 85 61 82 2 -2 -11 -24 -29 -49z"/>
<path d="M3260 3122 c6 -13 14 -21 18 -18 3 4 -2 14 -12 24 -18 16 -18 16 -6
-6z"/>
<path d="M3766 3038 c-3 -13 -1 -27 3 -31 14 -14 31 2 31 29 0 30 -26 32 -34
2z"/>
<path d="M3834 3025 c-8 -33 8 -52 25 -31 15 18 11 48 -6 53 -7 3 -15 -7 -19
-22z"/>
<path d="M2077 3023 c18 -2 50 -2 70 0 21 2 7 4 -32 4 -38 0 -55 -2 -38 -4z"/>
<path d="M2190 3020 c0 -5 11 -10 24 -10 13 0 44 -3 70 -6 38 -6 46 -4 46 10
0 13 -12 16 -70 16 -40 0 -70 -4 -70 -10z"/>
<path d="M3100 3010 c0 -5 20 -10 45 -10 25 0 45 5 45 10 0 6 -20 10 -45 10
-25 0 -45 -4 -45 -10z"/>
<path d="M3730 2963 c0 -5 11 -20 24 -32 18 -17 33 -21 57 -18 l34 4 -37 1
c-26 2 -42 9 -57 28 -12 15 -21 22 -21 17z"/>
<path d="M3866 2942 l-19 -27 26 24 c28 26 32 31 20 31 -5 0 -17 -13 -27 -28z"/>
<path d="M3743 2841 c-9 -14 -9 -22 -2 -27 15 -9 21 1 17 26 -3 21 -3 21 -15
1z"/>
<path d="M1610 2133 c1 -5 9 -23 19 -41 19 -38 33 -31 45 23 5 22 4 26 -4 15
-6 -10 -10 -11 -10 -2 0 6 -11 12 -25 12 -14 0 -25 -3 -25 -7z"/>
<path d="M2591 2116 c-8 -10 -8 -16 1 -24 19 -15 40 9 22 25 -9 9 -15 9 -23
-1z"/>
<path d="M1810 1990 c0 -5 20 -10 45 -10 25 0 45 5 45 10 0 6 -20 10 -45 10
-25 0 -45 -4 -45 -10z"/>
<path d="M2677 1994 c-20 -20 4 -24 131 -23 128 2 132 2 57 9 -44 4 -103 10
-130 14 -28 4 -54 4 -58 0z"/>
<path d="M1755 1974 c-36 -19 -47 -35 -34 -50 5 -6 7 -18 4 -26 -5 -14 20 -45
34 -42 3 1 12 -1 19 -4 26 -9 23 8 -8 53 -18 26 -30 48 -27 51 2 2 21 -23 41
-56 32 -52 41 -60 67 -60 l30 0 -32 58 c-17 31 -38 62 -45 68 -8 6 -11 14 -7
17 12 12 -11 7 -42 -9z m-7 -99 c-3 -3 -9 2 -12 12 -6 14 -5 15 5 6 7 -7 10
-15 7 -18z"/>
<path d="M3330 1983 c0 -6 -11 -8 -24 -6 -20 4 -31 -5 -66 -57 -42 -62 -46
-79 -13 -65 10 5 22 9 26 9 14 1 91 115 84 123 -4 3 -7 2 -7 -4z m-19 -30
c-16 -29 -61 -87 -61 -79 0 8 61 96 67 96 2 0 -1 -8 -6 -17z"/>
<path d="M1850 1913 c18 -32 38 -63 46 -69 8 -6 14 -15 14 -20 0 -5 21 -33 46
-62 35 -40 52 -52 75 -52 l29 0 -36 55 c-25 38 -44 55 -58 55 -17 0 -18 2 -6
10 13 8 10 19 -18 75 l-32 65 -46 0 -46 0 32 -57z"/>
<path d="M1790 1831 c0 -13 110 -114 117 -107 4 4 -18 31 -47 61 -52 53 -70
65 -70 46z"/>
<path d="M3141 1788 c-28 -29 -46 -55 -40 -57 11 -3 109 87 109 101 0 19 -21
5 -69 -44z"/>
<path d="M1856 1808 c54 -66 80 -88 102 -88 22 0 21 4 -23 55 -34 40 -54 55
-73 55 -25 0 -25 0 -6 -22z"/>
<path d="M3072 1781 c-47 -56 -49 -61 -23 -61 16 0 111 89 111 105 0 3 -11 5
-23 5 -16 0 -37 -16 -65 -49z"/>
<path d="M2006 1808 c39 -68 69 -98 98 -99 26 -1 27 -2 7 -6 -23 -5 -22 -6 20
-49 31 -32 51 -44 72 -44 l30 0 -36 43 c-20 23 -51 70 -69 105 l-33 62 -48 0
c-36 0 -46 -3 -41 -12z"/>
<path d="M2902 1808 c-5 -7 -21 -35 -36 -63 -14 -27 -42 -69 -62 -92 l-37 -43
30 0 c21 0 41 12 72 44 42 43 43 44 20 49 -19 3 -18 5 8 6 25 1 38 10 67 51
20 28 36 52 36 55 0 11 -88 4 -98 -7z"/>
<path d="M1970 1671 c30 -21 60 -37 66 -34 7 2 15 0 19 -6 3 -6 14 -11 23 -11
12 0 5 11 -23 36 l-40 36 47 -36 c25 -20 53 -36 62 -36 9 0 16 -5 16 -11 0 -6
-9 -8 -22 -4 -18 4 -17 2 5 -10 16 -9 31 -14 34 -11 3 3 23 -4 44 -14 44 -23
53 -25 43 -9 -4 7 1 7 16 -1 12 -6 28 -9 37 -6 8 3 24 1 35 -5 30 -16 34 -2 8
26 -20 22 -32 25 -84 24 -34 -1 -66 -1 -73 0 -6 1 -33 24 -60 52 -44 47 -51
51 -85 46 -21 -3 -41 -1 -44 4 -3 5 -13 9 -22 9 -12 -1 -5 -12 23 -37 l40 -35
-51 36 c-29 20 -56 36 -60 36 -5 0 16 -17 46 -39z m255 -91 c3 -6 -1 -7 -9 -4
-18 7 -21 14 -7 14 6 0 13 -4 16 -10z m66 -7 c13 -15 12 -15 -8 -4 -24 12 -29
21 -14 21 5 0 15 -7 22 -17z"/>
<path d="M3005 1700 c-3 -5 -21 -6 -39 -3 -30 5 -40 0 -78 -36 -39 -37 -41
-41 -20 -41 13 0 45 16 70 36 l47 36 -39 -36 c-26 -23 -34 -36 -23 -36 9 0 19
5 22 11 4 6 12 8 19 6 6 -3 35 12 64 32 l52 38 -35 1 c-19 1 -37 -3 -40 -8z
m19 -22 c-44 -33 -53 -36 -19 -6 16 15 34 28 39 28 5 0 -4 -10 -20 -22z"/>
<path d="M2301 1650 c20 -36 27 -40 60 -40 21 0 39 5 41 12 2 6 12 -9 22 -35
l17 -46 87 1 c74 0 90 3 110 21 30 28 28 37 -7 37 -19 0 -35 -8 -44 -21 -15
-20 -15 -20 -13 4 1 24 26 59 26 37 0 -5 18 -10 40 -10 36 0 41 3 60 40 l20
40 -50 0 c-33 0 -50 -4 -50 -12 0 -10 -2 -10 -8 -1 -5 8 -43 12 -115 12 l-107
0 5 -27 5 -27 -11 28 c-10 24 -15 27 -60 27 l-50 0 22 -40z m209 -50 c0 -5 -4
-10 -10 -10 -5 0 -10 5 -10 10 0 6 5 10 10 10 6 0 10 -4 10 -10z"/>
<path d="M2826 1602 c-4 -3 -36 -5 -73 -4 -56 1 -71 -2 -90 -20 -13 -12 -23
-26 -23 -30 0 -14 42 1 66 23 11 11 24 19 30 19 5 0 -2 -9 -16 -20 l-25 -19
40 3 c23 2 51 8 63 15 12 7 26 10 30 7 4 -2 22 4 40 13 l33 17 -35 1 c-19 1
-37 -2 -40 -5z m-42 -27 c-10 -8 -23 -15 -28 -15 -6 0 -1 7 10 15 10 8 23 15
28 15 6 0 1 -7 -10 -15z"/>
<path d="M2360 1570 c14 -19 30 -30 46 -30 28 0 28 1 12 35 -9 20 -18 25 -45
25 l-34 0 21 -30z"/>
<path d="M2425 1520 c3 -5 10 -10 16 -10 5 0 9 5 9 10 0 6 -7 10 -16 10 -8 0
-12 -4 -9 -10z"/>
<path d="M2465 1521 c7 -12 64 -11 71 1 3 4 -13 8 -36 8 -23 0 -39 -4 -35 -9z"/>
<path d="M2555 1520 c-8 -13 5 -13 25 0 13 8 13 10 -2 10 -9 0 -20 -4 -23 -10z"/>
<path d="M1767 3353 c-15 -14 -7 -43 12 -43 26 0 36 17 21 35 -14 16 -23 19
-33 8z"/>
<path d="M1647 3233 c-15 -14 -7 -43 12 -43 23 0 34 23 18 39 -13 13 -21 14
-30 4z"/>
<path d="M2607 2683 c-11 -10 -8 -143 3 -143 6 0 10 32 10 75 0 75 -1 81 -13
68z"/>
<path d="M3204 1695 c-4 -8 0 -22 7 -31 12 -14 15 -14 31 6 10 12 15 26 12 31
-9 15 -44 10 -50 -6z"/>
<path d="M3083 1603 c-21 -8 -15 -43 6 -43 11 0 23 5 27 11 8 14 -17 38 -33
32z"/>
<path d="M2930 1515 c-10 -11 -10 -19 -2 -27 15 -15 44 -2 40 19 -4 23 -22 27
-38 8z"/>
<path d="M2164 1465 c-7 -18 3 -35 22 -35 20 0 30 30 13 41 -20 12 -29 11 -35
-6z"/>
<path d="M2320 1421 c0 -22 21 -33 40 -21 18 11 4 40 -20 40 -13 0 -20 -7 -20
-19z"/>
<path d="M2490 1405 c0 -26 14 -31 39 -16 19 12 6 41 -19 41 -15 0 -20 -7 -20
-25z"/>
</g>
</svg>
